<svg width="41" height="40" viewBox="0 0 41 40" fill="none" xmlns="http://www.w3.org/2000/svg">
<path d="M38.0199 11.0089L11.6095 2.44895C10.8445 2.201 10.0234 2.62016 9.77542 3.38516L4.77304 18.8192C4.52509 19.5842 4.94425 20.4053 5.70925 20.6533L32.1196 29.2132L30.2091 19.5075C30.1138 19.0235 30.27 18.5243 30.6241 18.1809L38.0199 11.0089Z" fill="#FFE1B6"/>
<path d="M38.0199 11.0089L39.0336 12.0542L40.7705 10.3698L38.4688 9.62374L38.0199 11.0089ZM30.6241 18.1809L31.6378 19.2262L30.6241 18.1809ZM30.2091 19.5075L31.6378 19.2262L31.6378 19.2262L30.2091 19.5075ZM32.1196 29.2132L31.6706 30.5984L34.0266 31.362L33.5483 28.932L32.1196 29.2132ZM11.1606 3.83411L37.5709 12.3941L38.4688 9.62374L12.0585 1.06379L11.1606 3.83411ZM37.0062 9.96359L29.6104 17.1356L31.6378 19.2262L39.0336 12.0542L37.0062 9.96359ZM28.7804 19.7887L30.6909 29.4945L33.5483 28.932L31.6378 19.2262L28.7804 19.7887ZM32.5685 27.8281L6.1582 19.2681L5.2603 22.0384L31.6706 30.5984L32.5685 27.8281ZM6.1582 19.2681L11.1606 3.83411L8.39026 2.93621L3.38788 18.3702L6.1582 19.2681ZM6.1582 19.2681L6.1582 19.2681L3.38788 18.3702C2.89199 19.9002 3.7303 21.5426 5.2603 22.0384L6.1582 19.2681ZM29.6104 17.1356C28.9023 17.8223 28.5899 18.8208 28.7804 19.7887L31.6378 19.2262L29.6104 17.1356ZM12.0585 1.06379C10.5285 0.567896 8.88615 1.40621 8.39026 2.93621L11.1606 3.83411L11.1606 3.83411L12.0585 1.06379Z" fill="#FFE1B6"/>
<path d="M13.0011 5.04693C13.3739 3.89656 12.7436 2.66175 11.5933 2.28891C10.4429 1.91606 9.20808 2.54636 8.83523 3.69672L13.0011 5.04693ZM0.240503 30.2144C-0.132346 31.3647 0.497955 32.5996 1.64832 32.9724C2.79868 33.3453 4.03349 32.7149 4.40634 31.5646L0.240503 30.2144ZM8.83523 3.69672L0.240503 30.2144L4.40634 31.5646L13.0011 5.04693L8.83523 3.69672Z" fill="#FFE1B6"/>
</svg>
