<svg width="99" height="26" viewBox="0 0 99 26" fill="none" xmlns="http://www.w3.org/2000/svg">
<path d="M3.95465 25.922L13.1393 7.09106H17.5129L8.41576 25.922H3.95465Z" fill="#1A58E2"/>
<path fill-rule="evenodd" clip-rule="evenodd" d="M0 6.33789L8.9663 24.7922L17.9326 6.33789H0ZM4.4828 6.33791L8.96595 15.4186L13.4491 6.33791H4.4828Z" fill="#1A58E2"/>
<path fill-rule="evenodd" clip-rule="evenodd" d="M23.9721 21.5872C28.1112 21.5872 31.4667 18.2317 31.4667 14.0925C31.4667 9.95337 28.1112 6.5979 23.9721 6.5979C19.8329 6.5979 16.4774 9.95337 16.4774 14.0925C16.4774 18.2317 19.8329 21.5872 23.9721 21.5872ZM23.9723 17.7899C26.0143 17.7899 27.6696 16.1346 27.6696 14.0926C27.6696 12.0506 26.0143 10.3952 23.9723 10.3952C21.9303 10.3952 20.2749 12.0506 20.2749 14.0926C20.2749 16.1346 21.9303 17.7899 23.9723 17.7899Z" fill="#1A58E2"/>
<path fill-rule="evenodd" clip-rule="evenodd" d="M71.3381 21.5872C75.4773 21.5872 78.8327 18.2317 78.8327 14.0925C78.8327 9.95337 75.4773 6.5979 71.3381 6.5979C67.1989 6.5979 63.8434 9.95337 63.8434 14.0925C63.8434 18.2317 67.1989 21.5872 71.3381 21.5872ZM71.3384 17.7899C73.3804 17.7899 75.0357 16.1346 75.0357 14.0926C75.0357 12.0506 73.3804 10.3952 71.3384 10.3952C69.2964 10.3952 67.641 12.0506 67.641 14.0926C67.641 16.1346 69.2964 17.7899 71.3384 17.7899Z" fill="#1A58E2"/>
<path fill-rule="evenodd" clip-rule="evenodd" d="M39.7606 21.5872C43.8998 21.5872 47.2553 18.2317 47.2553 14.0925C47.2553 9.95337 43.8998 6.5979 39.7606 6.5979C35.6215 6.5979 32.266 9.95337 32.266 14.0925C32.266 18.2317 35.6215 21.5872 39.7606 21.5872ZM39.7603 17.7899C41.8023 17.7899 43.4577 16.1346 43.4577 14.0926C43.4577 12.0506 41.8023 10.3952 39.7603 10.3952C37.7183 10.3952 36.063 12.0506 36.063 14.0926C36.063 16.1346 37.7183 17.7899 39.7603 17.7899Z" fill="#1A58E2"/>
<path fill-rule="evenodd" clip-rule="evenodd" d="M87.1268 21.5872C91.266 21.5872 94.6214 18.2317 94.6214 14.0925C94.6214 9.95337 91.266 6.5979 87.1268 6.5979C82.9876 6.5979 79.6321 9.95337 79.6321 14.0925C79.6321 18.2317 82.9876 21.5872 87.1268 21.5872ZM87.127 17.7899C89.169 17.7899 90.8244 16.1346 90.8244 14.0926C90.8244 12.0506 89.169 10.3952 87.127 10.3952C85.085 10.3952 83.4297 12.0506 83.4297 14.0926C83.4297 16.1346 85.085 17.7899 87.127 17.7899Z" fill="#1A58E2"/>
<path fill-rule="evenodd" clip-rule="evenodd" d="M55.5495 21.5872C59.6886 21.5872 63.0441 18.2317 63.0441 14.0925C63.0441 9.95337 59.6886 6.5979 55.5495 6.5979C51.4103 6.5979 48.0548 9.95337 48.0548 14.0925C48.0548 18.2317 51.4103 21.5872 55.5495 21.5872ZM55.55 17.7899C57.592 17.7899 59.2474 16.1346 59.2474 14.0926C59.2474 12.0506 57.592 10.3952 55.55 10.3952C53.508 10.3952 51.8527 12.0506 51.8527 14.0926C51.8527 16.1346 53.508 17.7899 55.55 17.7899Z" fill="#1A58E2"/>
<rect x="59.2468" width="3.79729" height="21.5846" fill="#1A58E2"/>
<circle cx="96.8106" cy="19.2203" r="2.18934" fill="#1A58E2"/>
</svg>
