<svg width="39" height="41" viewBox="0 0 39 41" fill="none" xmlns="http://www.w3.org/2000/svg">
<path d="M12.1203 4.40485C12.8187 0.944933 17.1152 -0.307286 19.563 2.23567L24.0064 6.85167C24.9533 7.83537 26.3051 8.32073 27.6615 8.16405L34.0263 7.42883C37.5326 7.0238 40.0513 10.723 38.3892 13.8369L35.3722 19.4893C34.7293 20.6938 34.6854 22.1294 35.2535 23.371L37.9196 29.1971C39.3883 32.4067 36.6484 35.9452 33.1734 35.3267L26.8654 34.204C25.5211 33.9648 24.1422 34.3667 23.137 35.2907L18.4199 39.6266C15.8212 42.0153 11.6093 40.5029 11.1236 37.0068L10.242 30.6606C10.0542 29.3082 9.24587 28.121 8.05644 27.4505L2.47505 24.3042C-0.599727 22.5709 -0.46297 18.0977 2.71195 16.5555L8.47512 13.756C9.70328 13.1594 10.5826 12.0237 10.8527 10.6853L12.1203 4.40485Z" fill="#F9EAB3"/>
</svg>
